<?xml version="1.0" encoding="utf-8"?>
<!-- Generator: Adobe Illustrator 22.1.0, SVG Export Plug-In . SVG Version: 6.00 Build 0)  -->
<svg version="1.1" id="Livello_1" xmlns="http://www.w3.org/2000/svg" xmlns:xlink="http://www.w3.org/1999/xlink" x="0px" y="0px"
	 viewBox="0 0 1366 716.9" style="enable-background:new 0 0 1366 716.9;" xml:space="preserve">
<style type="text/css">
	.st0{fill:#FFFFFF;}
</style>
<title>wave</title>
<path class="st0" d="M0,24.1C0,24,0,24,0,24.1C3.4,23.3,137.9-2.6,290,28c154,31,278,50,343,35S896.6,0,956,0
	c190.2,0,406,66.8,410,68c0,0,0,0.1,0,0.1v646.8c0,0,0,0.1-0.1,0.1c-5.1,0.2-271.8,11.7-360.9-25c-90-37-277-30-335-16
	s-187,43-332,29C194.5,689.2,4,654.7,0.1,654c0,0-0.1,0-0.1-0.1V24.1z"/>
</svg>
