<?xml version="1.0" encoding="utf-8"?>
<!-- Generator: Adobe Illustrator 22.1.0, SVG Export Plug-In . SVG Version: 6.00 Build 0)  -->
<svg version="1.1" id="Livello_1" xmlns="http://www.w3.org/2000/svg" xmlns:xlink="http://www.w3.org/1999/xlink" x="0px" y="0px"
	 viewBox="0 0 1366 716.9" style="enable-background:new 0 0 1366 716.9;" xml:space="preserve">
<style type="text/css">
	.st0{fill:#F0F0F0;}
</style>
<title>wave</title>
<path class="st0" d="M0,27.8C0,27.7,0,27.7,0,27.8C3.4,27,137.9,1.1,290,31.7c154,31,278,50,343,35s263.6-63,323-63
	c190.2,0,406,66.8,410,68v0.1v646.8c0,0,0,0.1-0.1,0.1c-5.1,0.2-234.9,13-360.9-25c-173-62-277-30-335-16s-187,43-332,29
	c-143.5-13.8-334-48.3-337.9-49c0,0-0.1,0-0.1-0.1V27.8z"/>
</svg>
